# xmcd
#
# Track frame offsets:
#	150
#	13346
#	30233
#	44156
#	60213
#	73996
#	86283
#	97983
#	112620
#	124533
#
# Disc length: 1814
#
# Revision: 1
# Processed by: cddbd v1.5.1PL0 Copyright (c) Steve Scherf et al.
# Submitted via: audiograbber 1.80
# Normalized: r0:DSETVAR1
#
DISCID=7307140a
DTITLE=Various Artist - Family Circle 10 all-time favorite soul tracks
DYEAR=1900
DGENRE=
TTITLE0=Percy Sledge - When A Man Loves A Woman
TTITLE1=Maria Muldour - Midnight At The Oasis
TTITLE2=Jimmy Ruffin - What Becomes Of The Broken Hearted
TTITLE3=Ruby Winters - I Will
TTITLE4=Ben E King - Stand By Me
TTITLE5=The Drifters - Under The Broardwalk
TTITLE6=Sam and Dave - Soul Man
TTITLE7=Eddie Holman - (Hey There) Lonely Girl
TTITLE8=The Shirelles - Will You Love Me Tomorrow?
TTITLE9=Sammi Smith - Help Me Make It Through The Night
EXTD=new submission
EXTT0=
EXTT1=
EXTT2=
EXTT3=
EXTT4=
EXTT5=
EXTT6=
EXTT7=
EXTT8=
EXTT9=
PLAYORDER=
